# Blender v2.79 (sub 0) OBJ File: ''
# www.blender.org
v -1.000000 0.000000 1.000000
v 1.000000 0.000000 1.000000
v -1.000000 0.000000 -1.000000
v 1.000000 0.000000 -1.000000
v -1.000000 0.000000 -0.666667
v -1.000000 0.000000 -0.333333
v -1.000000 0.000000 0.000000
v -1.000000 0.000000 0.333333
v -1.000000 0.000000 0.666667
v -0.666667 0.000000 1.000000
v -0.333333 0.000000 1.000000
v 0.000000 0.000000 1.000000
v 0.333333 0.000000 1.000000
v 0.666667 0.000000 1.000000
v 1.000000 0.000000 0.666667
v 1.000000 0.000000 0.333333
v 1.000000 0.000000 -0.000000
v 1.000000 0.000000 -0.333333
v 1.000000 0.000000 -0.666667
v 0.666667 0.000000 -1.000000
v 0.333333 0.000000 -1.000000
v -0.000000 0.000000 -1.000000
v -0.333333 0.000000 -1.000000
v -0.666667 0.000000 -1.000000
v -0.666667 0.000000 0.666667
v -0.666667 0.000000 0.333333
v -0.666667 0.000000 -0.000000
v -0.666667 0.000000 -0.333333
v -0.666667 0.000000 -0.666667
v -0.333333 0.000000 0.666667
v -0.333333 0.000000 0.333333
v -0.333333 0.000000 -0.000000
v -0.333333 0.000000 -0.333333
v -0.333333 0.000000 -0.666667
v 0.000000 0.000000 0.666667
v 0.000000 0.000000 0.333333
v -0.000000 0.000000 -0.000000
v -0.000000 0.000000 -0.333333
v -0.000000 0.000000 -0.666667
v 0.333333 0.000000 0.666667
v 0.333333 0.000000 0.333333
v 0.333333 0.000000 -0.000000
v 0.333333 0.000000 -0.333333
v 0.333333 0.000000 -0.666667
v 0.666667 0.000000 0.666667
v 0.666667 0.000000 0.333333
v 0.666667 0.000000 -0.000000
v 0.666667 0.000000 -0.333333
v 0.666667 0.000000 -0.666667
vn 0.0000 1.0000 0.0000
s off
f 49//1 19//1 4//1 20//1
f 5//1 29//1 24//1 3//1
f 29//1 34//1 23//1 24//1
f 34//1 39//1 22//1 23//1
f 39//1 44//1 21//1 22//1
f 44//1 49//1 20//1 21//1
f 1//1 10//1 25//1 9//1
f 9//1 25//1 26//1 8//1
f 8//1 26//1 27//1 7//1
f 7//1 27//1 28//1 6//1
f 6//1 28//1 29//1 5//1
f 10//1 11//1 30//1 25//1
f 25//1 30//1 31//1 26//1
f 26//1 31//1 32//1 27//1
f 27//1 32//1 33//1 28//1
f 28//1 33//1 34//1 29//1
f 11//1 12//1 35//1 30//1
f 30//1 35//1 36//1 31//1
f 31//1 36//1 37//1 32//1
f 32//1 37//1 38//1 33//1
f 33//1 38//1 39//1 34//1
f 12//1 13//1 40//1 35//1
f 35//1 40//1 41//1 36//1
f 36//1 41//1 42//1 37//1
f 37//1 42//1 43//1 38//1
f 38//1 43//1 44//1 39//1
f 13//1 14//1 45//1 40//1
f 40//1 45//1 46//1 41//1
f 41//1 46//1 47//1 42//1
f 42//1 47//1 48//1 43//1
f 43//1 48//1 49//1 44//1
f 14//1 2//1 15//1 45//1
f 45//1 15//1 16//1 46//1
f 46//1 16//1 17//1 47//1
f 47//1 17//1 18//1 48//1
f 48//1 18//1 19//1 49//1
